<mxfile host="app.diagrams.net" modified="2024-04-20T11:23:53.768Z" agent="Mozilla/5.0 (Windows NT 10.0; Win64; x64; rv:125.0) Gecko/20100101 Firefox/125.0" etag="M_sviH1djIYsItFl5udl" version="24.2.3" type="device">
  <diagram name="Page-1" id="CqWXTRI_qTwvf4WjzB_1">
    <mxGraphModel dx="2261" dy="1875" grid="1" gridSize="10" guides="1" tooltips="1" connect="1" arrows="1" fold="1" page="1" pageScale="1" pageWidth="827" pageHeight="1169" math="0" shadow="0">
      <root>
        <mxCell id="0" />
        <mxCell id="1" parent="0" />
        <mxCell id="-jJtcqmyugY32-7t0Ndc-2" value="&lt;font style=&quot;font-size: 14px;&quot;&gt;Next-State Logic&lt;/font&gt;" style="rounded=0;whiteSpace=wrap;html=1;fontStyle=1;fontSize=14;strokeWidth=2;" parent="1" vertex="1">
          <mxGeometry x="-520" y="80" width="80" height="120" as="geometry" />
        </mxCell>
        <mxCell id="-jJtcqmyugY32-7t0Ndc-4" value="" style="endArrow=classic;html=1;rounded=0;strokeWidth=2;entryX=0;entryY=0.5;entryDx=0;entryDy=0;" parent="1" edge="1">
          <mxGeometry width="50" height="50" relative="1" as="geometry">
            <mxPoint x="-600" y="139.5" as="sourcePoint" />
            <mxPoint x="-520" y="139.5" as="targetPoint" />
          </mxGeometry>
        </mxCell>
        <mxCell id="-jJtcqmyugY32-7t0Ndc-5" value="Inputs" style="text;html=1;align=center;verticalAlign=middle;whiteSpace=wrap;rounded=0;fontSize=14;fontStyle=1" parent="1" vertex="1">
          <mxGeometry x="-680" y="20" width="80" height="30" as="geometry" />
        </mxCell>
        <mxCell id="-jJtcqmyugY32-7t0Ndc-9" value="State Register" style="rounded=0;whiteSpace=wrap;html=1;fontStyle=1;fontSize=14;strokeWidth=2;" parent="1" vertex="1">
          <mxGeometry x="-360" y="80" width="80" height="120" as="geometry" />
        </mxCell>
        <mxCell id="-jJtcqmyugY32-7t0Ndc-10" value="" style="endArrow=classic;html=1;rounded=0;strokeWidth=2;entryX=0;entryY=0.5;entryDx=0;entryDy=0;" parent="1" target="-jJtcqmyugY32-7t0Ndc-9" edge="1">
          <mxGeometry width="50" height="50" relative="1" as="geometry">
            <mxPoint x="-440" y="140" as="sourcePoint" />
            <mxPoint x="-320" y="140" as="targetPoint" />
          </mxGeometry>
        </mxCell>
        <mxCell id="-jJtcqmyugY32-7t0Ndc-15" value="Timer" style="rounded=0;whiteSpace=wrap;html=1;fontStyle=1;fontSize=14;strokeWidth=2;" parent="1" vertex="1">
          <mxGeometry x="-320" y="280" width="80" height="120" as="geometry" />
        </mxCell>
        <mxCell id="-jJtcqmyugY32-7t0Ndc-16" value="&lt;div&gt;Alarm&lt;/div&gt;&lt;div&gt;LEDs&lt;/div&gt;" style="rounded=0;whiteSpace=wrap;html=1;fontStyle=1;fontSize=14;strokeWidth=2;" parent="1" vertex="1">
          <mxGeometry y="160" width="80" height="120" as="geometry" />
        </mxCell>
        <mxCell id="-jJtcqmyugY32-7t0Ndc-17" value="Door Status LEDs" style="rounded=0;whiteSpace=wrap;html=1;fontStyle=1;fontSize=14;strokeWidth=2;" parent="1" vertex="1">
          <mxGeometry width="80" height="120" as="geometry" />
        </mxCell>
        <mxCell id="-jJtcqmyugY32-7t0Ndc-18" value="People Counter" style="rounded=0;whiteSpace=wrap;html=1;fontStyle=1;fontSize=14;strokeWidth=2;" parent="1" vertex="1">
          <mxGeometry y="320" width="80" height="120" as="geometry" />
        </mxCell>
        <mxCell id="-jJtcqmyugY32-7t0Ndc-32" value="" style="endArrow=classic;html=1;rounded=0;strokeWidth=2;" parent="1" edge="1">
          <mxGeometry width="50" height="50" relative="1" as="geometry">
            <mxPoint x="-120" y="380" as="sourcePoint" />
            <mxPoint y="380" as="targetPoint" />
          </mxGeometry>
        </mxCell>
        <mxCell id="-jJtcqmyugY32-7t0Ndc-34" value="" style="endArrow=classic;html=1;rounded=0;strokeWidth=2;exitX=1;exitY=0.5;exitDx=0;exitDy=0;" parent="1" source="-jJtcqmyugY32-7t0Ndc-9" edge="1">
          <mxGeometry width="50" height="50" relative="1" as="geometry">
            <mxPoint x="-120" y="59.5" as="sourcePoint" />
            <mxPoint y="59.5" as="targetPoint" />
            <Array as="points">
              <mxPoint x="-120" y="140" />
              <mxPoint x="-120" y="60" />
            </Array>
          </mxGeometry>
        </mxCell>
        <mxCell id="-jJtcqmyugY32-7t0Ndc-36" value="" style="endArrow=classic;html=1;rounded=0;strokeWidth=2;" parent="1" edge="1">
          <mxGeometry width="50" height="50" relative="1" as="geometry">
            <mxPoint x="80" y="59.5" as="sourcePoint" />
            <mxPoint x="280" y="60" as="targetPoint" />
          </mxGeometry>
        </mxCell>
        <mxCell id="-jJtcqmyugY32-7t0Ndc-38" value="" style="endArrow=classic;html=1;rounded=0;strokeWidth=2;" parent="1" edge="1">
          <mxGeometry width="50" height="50" relative="1" as="geometry">
            <mxPoint x="80" y="219.5" as="sourcePoint" />
            <mxPoint x="280" y="220" as="targetPoint" />
          </mxGeometry>
        </mxCell>
        <mxCell id="-jJtcqmyugY32-7t0Ndc-40" value="" style="endArrow=classic;html=1;rounded=0;strokeWidth=2;" parent="1" edge="1">
          <mxGeometry width="50" height="50" relative="1" as="geometry">
            <mxPoint x="-120" y="140" as="sourcePoint" />
            <mxPoint y="219.5" as="targetPoint" />
            <Array as="points">
              <mxPoint x="-120" y="220" />
            </Array>
          </mxGeometry>
        </mxCell>
        <mxCell id="-jJtcqmyugY32-7t0Ndc-46" value="" style="endArrow=none;html=1;rounded=0;strokeWidth=2;endFill=0;" parent="1" edge="1">
          <mxGeometry width="50" height="50" relative="1" as="geometry">
            <mxPoint x="-440" y="140" as="sourcePoint" />
            <mxPoint x="-400" y="310" as="targetPoint" />
            <Array as="points">
              <mxPoint x="-400" y="140" />
              <mxPoint x="-400" y="310" />
              <mxPoint x="-400" y="320" />
            </Array>
          </mxGeometry>
        </mxCell>
        <mxCell id="-jJtcqmyugY32-7t0Ndc-47" value="" style="endArrow=classic;html=1;rounded=0;strokeWidth=2;" parent="1" edge="1">
          <mxGeometry width="50" height="50" relative="1" as="geometry">
            <mxPoint x="80" y="379.5" as="sourcePoint" />
            <mxPoint x="280" y="380" as="targetPoint" />
          </mxGeometry>
        </mxCell>
        <mxCell id="-jJtcqmyugY32-7t0Ndc-50" value="" style="endArrow=none;html=1;rounded=0;strokeWidth=2;entryX=1;entryY=0.5;entryDx=0;entryDy=0;endFill=0;startArrow=none;startFill=0;" parent="1" target="-jJtcqmyugY32-7t0Ndc-15" edge="1">
          <mxGeometry width="50" height="50" relative="1" as="geometry">
            <mxPoint x="-550" y="180" as="sourcePoint" />
            <mxPoint x="-380" y="340" as="targetPoint" />
            <Array as="points">
              <mxPoint x="-550" y="220" />
              <mxPoint x="-420" y="220" />
              <mxPoint x="-400" y="210" />
              <mxPoint x="-380" y="220" />
              <mxPoint x="-200" y="220" />
              <mxPoint x="-200" y="340" />
            </Array>
          </mxGeometry>
        </mxCell>
        <mxCell id="-jJtcqmyugY32-7t0Ndc-51" value="" style="endArrow=none;html=1;rounded=0;strokeWidth=2;" parent="1" edge="1">
          <mxGeometry width="50" height="50" relative="1" as="geometry">
            <mxPoint x="-600" y="30" as="sourcePoint" />
            <mxPoint x="-160" y="350" as="targetPoint" />
            <Array as="points">
              <mxPoint x="-160" y="30" />
              <mxPoint x="-160" y="120" />
              <mxPoint x="-170" y="140" />
              <mxPoint x="-160" y="160" />
            </Array>
          </mxGeometry>
        </mxCell>
        <mxCell id="-jJtcqmyugY32-7t0Ndc-59" value="" style="endArrow=none;html=1;rounded=0;strokeWidth=2;" parent="1" edge="1">
          <mxGeometry width="50" height="50" relative="1" as="geometry">
            <mxPoint x="-60" y="410" as="sourcePoint" />
            <mxPoint x="120" y="380" as="targetPoint" />
            <Array as="points">
              <mxPoint x="-60" y="460" />
              <mxPoint x="120" y="460" />
            </Array>
          </mxGeometry>
        </mxCell>
        <mxCell id="-jJtcqmyugY32-7t0Ndc-60" value="" style="endArrow=none;html=1;rounded=0;strokeWidth=2;" parent="1" edge="1">
          <mxGeometry width="50" height="50" relative="1" as="geometry">
            <mxPoint x="-120" y="220" as="sourcePoint" />
            <mxPoint x="-120" y="380" as="targetPoint" />
            <Array as="points" />
          </mxGeometry>
        </mxCell>
        <mxCell id="-jJtcqmyugY32-7t0Ndc-61" value="Seven Segment Decoder" style="rounded=0;whiteSpace=wrap;html=1;fontStyle=1;fontSize=14;strokeWidth=2;" parent="1" vertex="1">
          <mxGeometry y="480" width="80" height="120" as="geometry" />
        </mxCell>
        <mxCell id="-jJtcqmyugY32-7t0Ndc-62" value="Morse Code Decoder" style="rounded=0;whiteSpace=wrap;html=1;fontStyle=1;fontSize=14;strokeWidth=2;" parent="1" vertex="1">
          <mxGeometry x="-520" y="440" width="80" height="120" as="geometry" />
        </mxCell>
        <mxCell id="-jJtcqmyugY32-7t0Ndc-64" value="" style="endArrow=none;html=1;rounded=0;strokeWidth=2;endFill=0;" parent="1" edge="1">
          <mxGeometry width="50" height="50" relative="1" as="geometry">
            <mxPoint x="-600" y="30" as="sourcePoint" />
            <mxPoint x="-600" y="470" as="targetPoint" />
            <Array as="points" />
          </mxGeometry>
        </mxCell>
        <mxCell id="-jJtcqmyugY32-7t0Ndc-68" value="&lt;div&gt;Seven Segment Decoder (morse)&lt;br&gt;&lt;/div&gt;" style="rounded=0;whiteSpace=wrap;html=1;fontStyle=1;fontSize=14;strokeWidth=2;" parent="1" vertex="1">
          <mxGeometry x="-320" y="440" width="80" height="120" as="geometry" />
        </mxCell>
        <mxCell id="-jJtcqmyugY32-7t0Ndc-69" value="" style="endArrow=classic;html=1;rounded=0;strokeWidth=2;entryX=0;entryY=0.5;entryDx=0;entryDy=0;" parent="1" target="-jJtcqmyugY32-7t0Ndc-68" edge="1">
          <mxGeometry width="50" height="50" relative="1" as="geometry">
            <mxPoint x="-440" y="499.5" as="sourcePoint" />
            <mxPoint x="-360" y="500" as="targetPoint" />
          </mxGeometry>
        </mxCell>
        <mxCell id="-jJtcqmyugY32-7t0Ndc-71" value="" style="endArrow=classic;html=1;rounded=0;strokeWidth=2;entryX=0;entryY=0.5;entryDx=0;entryDy=0;" parent="1" target="-jJtcqmyugY32-7t0Ndc-61" edge="1">
          <mxGeometry width="50" height="50" relative="1" as="geometry">
            <mxPoint x="-60" y="460" as="sourcePoint" />
            <mxPoint x="235" y="480.5" as="targetPoint" />
            <Array as="points">
              <mxPoint x="-60" y="480" />
              <mxPoint x="-60" y="540" />
            </Array>
          </mxGeometry>
        </mxCell>
        <mxCell id="-jJtcqmyugY32-7t0Ndc-74" value="" style="endArrow=none;html=1;rounded=0;strokeWidth=2;" parent="1" edge="1">
          <mxGeometry width="50" height="50" relative="1" as="geometry">
            <mxPoint x="-570" y="160" as="sourcePoint" />
            <mxPoint x="-380" y="500" as="targetPoint" />
            <Array as="points">
              <mxPoint x="-570" y="330" />
              <mxPoint x="-580" y="350" />
              <mxPoint x="-570" y="370" />
              <mxPoint x="-570" y="400" />
              <mxPoint x="-380" y="400" />
            </Array>
          </mxGeometry>
        </mxCell>
        <mxCell id="-jJtcqmyugY32-7t0Ndc-77" value="" style="endArrow=classic;html=1;rounded=0;strokeWidth=2;" parent="1" edge="1">
          <mxGeometry width="50" height="50" relative="1" as="geometry">
            <mxPoint x="-380" y="440" as="sourcePoint" />
            <mxPoint x="280" y="820.5" as="targetPoint" />
            <Array as="points">
              <mxPoint x="-380" y="820.5" />
            </Array>
          </mxGeometry>
        </mxCell>
        <mxCell id="-jJtcqmyugY32-7t0Ndc-78" value="" style="endArrow=classic;html=1;rounded=0;strokeWidth=2;" parent="1" edge="1">
          <mxGeometry width="50" height="50" relative="1" as="geometry">
            <mxPoint x="-240" y="499.5" as="sourcePoint" />
            <mxPoint x="290" y="620" as="targetPoint" />
            <Array as="points">
              <mxPoint x="-200" y="500" />
              <mxPoint x="-200" y="620" />
              <mxPoint x="-140" y="620" />
              <mxPoint x="-120" y="610" />
              <mxPoint x="-100" y="620" />
              <mxPoint x="-80" y="620" />
              <mxPoint x="-60" y="610" />
              <mxPoint x="-40" y="620" />
            </Array>
          </mxGeometry>
        </mxCell>
        <mxCell id="-jJtcqmyugY32-7t0Ndc-83" value="" style="endArrow=classic;html=1;rounded=0;strokeWidth=2;" parent="1" edge="1">
          <mxGeometry width="50" height="50" relative="1" as="geometry">
            <mxPoint x="80" y="539.5" as="sourcePoint" />
            <mxPoint x="280" y="540" as="targetPoint" />
          </mxGeometry>
        </mxCell>
        <mxCell id="-jJtcqmyugY32-7t0Ndc-84" value="" style="endArrow=classic;html=1;rounded=0;strokeWidth=2;" parent="1" edge="1">
          <mxGeometry width="50" height="50" relative="1" as="geometry">
            <mxPoint x="-400" y="30" as="sourcePoint" />
            <mxPoint x="-360" y="110" as="targetPoint" />
            <Array as="points">
              <mxPoint x="-400" y="110" />
            </Array>
          </mxGeometry>
        </mxCell>
        <mxCell id="-jJtcqmyugY32-7t0Ndc-85" value="" style="endArrow=classic;html=1;rounded=0;strokeWidth=2;entryX=0;entryY=0.5;entryDx=0;entryDy=0;" parent="1" edge="1">
          <mxGeometry width="50" height="50" relative="1" as="geometry">
            <mxPoint x="-570" y="159" as="sourcePoint" />
            <mxPoint x="-520" y="159" as="targetPoint" />
          </mxGeometry>
        </mxCell>
        <mxCell id="-jJtcqmyugY32-7t0Ndc-86" value="" style="endArrow=classic;html=1;rounded=0;strokeWidth=2;" parent="1" edge="1">
          <mxGeometry width="50" height="50" relative="1" as="geometry">
            <mxPoint x="-550" y="180" as="sourcePoint" />
            <mxPoint x="-520" y="180" as="targetPoint" />
          </mxGeometry>
        </mxCell>
        <mxCell id="-jJtcqmyugY32-7t0Ndc-87" value="" style="endArrow=classic;html=1;rounded=0;strokeWidth=2;" parent="1" edge="1">
          <mxGeometry width="50" height="50" relative="1" as="geometry">
            <mxPoint x="-600" y="350" as="sourcePoint" />
            <mxPoint x="-320" y="350" as="targetPoint" />
          </mxGeometry>
        </mxCell>
        <mxCell id="-jJtcqmyugY32-7t0Ndc-89" value="" style="endArrow=classic;html=1;rounded=0;strokeWidth=2;" parent="1" edge="1">
          <mxGeometry width="50" height="50" relative="1" as="geometry">
            <mxPoint x="-160" y="350" as="sourcePoint" />
            <mxPoint y="350" as="targetPoint" />
            <Array as="points">
              <mxPoint x="-140" y="350" />
              <mxPoint x="-120" y="340" />
              <mxPoint x="-100" y="350" />
            </Array>
          </mxGeometry>
        </mxCell>
        <mxCell id="-jJtcqmyugY32-7t0Ndc-90" value="" style="endArrow=classic;html=1;rounded=0;strokeWidth=2;" parent="1" edge="1">
          <mxGeometry width="50" height="50" relative="1" as="geometry">
            <mxPoint x="-160" y="190" as="sourcePoint" />
            <mxPoint y="190" as="targetPoint" />
            <Array as="points">
              <mxPoint x="-140" y="190" />
              <mxPoint x="-120" y="180" />
              <mxPoint x="-100" y="190" />
            </Array>
          </mxGeometry>
        </mxCell>
        <mxCell id="-jJtcqmyugY32-7t0Ndc-91" value="" style="endArrow=classic;html=1;rounded=0;strokeWidth=2;" parent="1" edge="1">
          <mxGeometry width="50" height="50" relative="1" as="geometry">
            <mxPoint x="-160" y="30.5" as="sourcePoint" />
            <mxPoint y="30" as="targetPoint" />
          </mxGeometry>
        </mxCell>
        <mxCell id="-jJtcqmyugY32-7t0Ndc-92" value="" style="endArrow=classic;html=1;rounded=0;strokeWidth=2;" parent="1" edge="1">
          <mxGeometry width="50" height="50" relative="1" as="geometry">
            <mxPoint x="-560" y="530" as="sourcePoint" />
            <mxPoint x="-520" y="530" as="targetPoint" />
          </mxGeometry>
        </mxCell>
        <mxCell id="-jJtcqmyugY32-7t0Ndc-93" value="" style="endArrow=none;html=1;rounded=0;strokeWidth=2;" parent="1" edge="1">
          <mxGeometry width="50" height="50" relative="1" as="geometry">
            <mxPoint x="-560" y="530" as="sourcePoint" />
            <mxPoint x="-120" y="380" as="targetPoint" />
            <Array as="points">
              <mxPoint x="-560" y="600" />
              <mxPoint x="-400" y="600" />
              <mxPoint x="-380" y="590" />
              <mxPoint x="-360" y="600" />
              <mxPoint x="-220" y="600" />
              <mxPoint x="-200" y="590" />
              <mxPoint x="-180" y="600" />
              <mxPoint x="-120" y="600" />
            </Array>
          </mxGeometry>
        </mxCell>
        <mxCell id="-jJtcqmyugY32-7t0Ndc-94" value="" style="endArrow=classic;html=1;rounded=0;strokeWidth=2;" parent="1" edge="1">
          <mxGeometry width="50" height="50" relative="1" as="geometry">
            <mxPoint x="-60" y="410" as="sourcePoint" />
            <mxPoint y="410" as="targetPoint" />
          </mxGeometry>
        </mxCell>
        <mxCell id="-jJtcqmyugY32-7t0Ndc-95" value="" style="endArrow=classic;html=1;rounded=0;strokeWidth=2;" parent="1" edge="1">
          <mxGeometry width="50" height="50" relative="1" as="geometry">
            <mxPoint x="-560" y="100" as="sourcePoint" />
            <mxPoint x="-520" y="100" as="targetPoint" />
          </mxGeometry>
        </mxCell>
        <mxCell id="-jJtcqmyugY32-7t0Ndc-97" value="" style="endArrow=none;html=1;rounded=0;strokeWidth=2;" parent="1" edge="1">
          <mxGeometry width="50" height="50" relative="1" as="geometry">
            <mxPoint x="-560" y="100" as="sourcePoint" />
            <mxPoint x="-240" y="140" as="targetPoint" />
            <Array as="points">
              <mxPoint x="-560" y="60" />
              <mxPoint x="-420" y="60" />
              <mxPoint x="-400" y="50" />
              <mxPoint x="-380" y="60" />
              <mxPoint x="-240" y="60" />
            </Array>
          </mxGeometry>
        </mxCell>
        <mxCell id="-jJtcqmyugY32-7t0Ndc-100" value="Vault Occupied" style="rounded=0;whiteSpace=wrap;html=1;fontStyle=1;fontSize=14;strokeWidth=2;" parent="1" vertex="1">
          <mxGeometry y="680" width="80" height="120" as="geometry" />
        </mxCell>
        <mxCell id="-jJtcqmyugY32-7t0Ndc-101" value="" style="endArrow=classic;html=1;rounded=0;strokeWidth=2;entryX=0;entryY=0.5;entryDx=0;entryDy=0;" parent="1" target="-jJtcqmyugY32-7t0Ndc-100" edge="1">
          <mxGeometry width="50" height="50" relative="1" as="geometry">
            <mxPoint x="-120" y="600" as="sourcePoint" />
            <mxPoint y="779.5" as="targetPoint" />
            <Array as="points">
              <mxPoint x="-120" y="740" />
              <mxPoint x="-80" y="740" />
              <mxPoint x="-60" y="730" />
              <mxPoint x="-40" y="740" />
            </Array>
          </mxGeometry>
        </mxCell>
        <mxCell id="-jJtcqmyugY32-7t0Ndc-103" value="" style="endArrow=classic;html=1;rounded=0;strokeWidth=2;" parent="1" edge="1">
          <mxGeometry width="50" height="50" relative="1" as="geometry">
            <mxPoint x="-600" y="470" as="sourcePoint" />
            <mxPoint x="-520" y="470" as="targetPoint" />
          </mxGeometry>
        </mxCell>
        <mxCell id="-jJtcqmyugY32-7t0Ndc-104" value="" style="endArrow=classic;html=1;rounded=0;strokeWidth=2;" parent="1" edge="1">
          <mxGeometry width="50" height="50" relative="1" as="geometry">
            <mxPoint x="-600" y="499.5" as="sourcePoint" />
            <mxPoint x="-520" y="499.5" as="targetPoint" />
          </mxGeometry>
        </mxCell>
        <mxCell id="-jJtcqmyugY32-7t0Ndc-105" value="" style="endArrow=none;html=1;rounded=0;strokeWidth=2;entryX=1;entryY=0.5;entryDx=0;entryDy=0;" parent="1" edge="1">
          <mxGeometry width="50" height="50" relative="1" as="geometry">
            <mxPoint x="-600" y="460" as="sourcePoint" />
            <mxPoint x="80" y="740" as="targetPoint" />
            <Array as="points">
              <mxPoint x="-600" y="660" />
              <mxPoint x="-400" y="660" />
              <mxPoint x="-380" y="650" />
              <mxPoint x="-360" y="660" />
              <mxPoint x="-140" y="660" />
              <mxPoint x="-120" y="650" />
              <mxPoint x="-100" y="660" />
              <mxPoint x="-80" y="660" />
              <mxPoint x="-60" y="650" />
              <mxPoint x="-40" y="660" />
              <mxPoint x="120" y="660" />
              <mxPoint x="120" y="740" />
            </Array>
          </mxGeometry>
        </mxCell>
        <mxCell id="-jJtcqmyugY32-7t0Ndc-106" value="" style="endArrow=classic;html=1;rounded=0;strokeWidth=2;" parent="1" edge="1">
          <mxGeometry width="50" height="50" relative="1" as="geometry">
            <mxPoint x="120" y="739.5" as="sourcePoint" />
            <mxPoint x="280" y="740" as="targetPoint" />
          </mxGeometry>
        </mxCell>
        <mxCell id="CB34pUNGeaXHQtCr9SXL-1" value="" style="endArrow=classic;html=1;rounded=0;strokeWidth=2;" parent="1" edge="1">
          <mxGeometry width="50" height="50" relative="1" as="geometry">
            <mxPoint x="-360" y="300" as="sourcePoint" />
            <mxPoint x="-320" y="300" as="targetPoint" />
          </mxGeometry>
        </mxCell>
        <mxCell id="CB34pUNGeaXHQtCr9SXL-2" value="" style="endArrow=none;html=1;rounded=0;strokeWidth=2;" parent="1" edge="1">
          <mxGeometry width="50" height="50" relative="1" as="geometry">
            <mxPoint x="-360" y="300" as="sourcePoint" />
            <mxPoint x="-240" y="140" as="targetPoint" />
            <Array as="points">
              <mxPoint x="-360" y="250" />
              <mxPoint x="-240" y="250" />
              <mxPoint x="-240" y="240" />
              <mxPoint x="-250" y="220" />
              <mxPoint x="-240" y="200" />
            </Array>
          </mxGeometry>
        </mxCell>
        <mxCell id="CB34pUNGeaXHQtCr9SXL-3" value="" style="endArrow=classic;html=1;rounded=0;strokeWidth=2;" parent="1" edge="1">
          <mxGeometry width="50" height="50" relative="1" as="geometry">
            <mxPoint x="-40" y="250" as="sourcePoint" />
            <mxPoint y="250.5" as="targetPoint" />
          </mxGeometry>
        </mxCell>
        <mxCell id="CB34pUNGeaXHQtCr9SXL-4" value="" style="endArrow=none;html=1;rounded=0;strokeWidth=2;" parent="1" edge="1">
          <mxGeometry width="50" height="50" relative="1" as="geometry">
            <mxPoint x="-40" y="250" as="sourcePoint" />
            <mxPoint x="120" y="220" as="targetPoint" />
            <Array as="points">
              <mxPoint x="-40" y="300" />
              <mxPoint x="120" y="300" />
              <mxPoint x="120" y="250" />
            </Array>
          </mxGeometry>
        </mxCell>
        <mxCell id="CB34pUNGeaXHQtCr9SXL-5" value="" style="endArrow=classic;html=1;rounded=0;strokeWidth=2;" parent="1" edge="1">
          <mxGeometry width="50" height="50" relative="1" as="geometry">
            <mxPoint x="-40" y="91" as="sourcePoint" />
            <mxPoint y="90.5" as="targetPoint" />
          </mxGeometry>
        </mxCell>
        <mxCell id="CB34pUNGeaXHQtCr9SXL-6" value="" style="endArrow=none;html=1;rounded=0;strokeWidth=2;" parent="1" edge="1">
          <mxGeometry width="50" height="50" relative="1" as="geometry">
            <mxPoint x="-40" y="90" as="sourcePoint" />
            <mxPoint x="120" y="60" as="targetPoint" />
            <Array as="points">
              <mxPoint x="-40" y="140" />
              <mxPoint x="120" y="140" />
              <mxPoint x="120" y="90" />
            </Array>
          </mxGeometry>
        </mxCell>
        <mxCell id="CB34pUNGeaXHQtCr9SXL-7" value="" style="endArrow=classic;html=1;rounded=0;strokeWidth=2;" parent="1" edge="1">
          <mxGeometry width="50" height="50" relative="1" as="geometry">
            <mxPoint x="-400" y="320" as="sourcePoint" />
            <mxPoint x="-320" y="320" as="targetPoint" />
          </mxGeometry>
        </mxCell>
        <mxCell id="CB34pUNGeaXHQtCr9SXL-8" value="" style="endArrow=classic;html=1;rounded=0;strokeWidth=2;" parent="1" edge="1">
          <mxGeometry width="50" height="50" relative="1" as="geometry">
            <mxPoint x="-350" y="380" as="sourcePoint" />
            <mxPoint x="-320" y="379.5" as="targetPoint" />
          </mxGeometry>
        </mxCell>
        <mxCell id="CB34pUNGeaXHQtCr9SXL-9" value="" style="endArrow=none;html=1;rounded=0;strokeWidth=2;" parent="1" edge="1">
          <mxGeometry width="50" height="50" relative="1" as="geometry">
            <mxPoint x="-350" y="380" as="sourcePoint" />
            <mxPoint x="-200" y="340" as="targetPoint" />
            <Array as="points">
              <mxPoint x="-350" y="420" />
              <mxPoint x="-200" y="420" />
            </Array>
          </mxGeometry>
        </mxCell>
        <mxCell id="LuhRbTHIqYFOP2sR_KDT-1" value="" style="endArrow=none;html=1;rounded=0;strokeWidth=2;" edge="1" parent="1">
          <mxGeometry width="50" height="50" relative="1" as="geometry">
            <mxPoint x="-640" y="120" as="sourcePoint" />
            <mxPoint x="-60" y="540" as="targetPoint" />
            <Array as="points">
              <mxPoint x="-640" y="780" />
              <mxPoint x="-400" y="780" />
              <mxPoint x="-380" y="770" />
              <mxPoint x="-360" y="780" />
              <mxPoint x="-60" y="780" />
              <mxPoint x="-60" y="760" />
              <mxPoint x="-60" y="720" />
              <mxPoint x="-60" y="680" />
              <mxPoint x="-60" y="640" />
            </Array>
          </mxGeometry>
        </mxCell>
        <mxCell id="LuhRbTHIqYFOP2sR_KDT-2" value="" style="endArrow=classic;html=1;rounded=0;strokeWidth=2;" edge="1" parent="1">
          <mxGeometry width="50" height="50" relative="1" as="geometry">
            <mxPoint x="-640" y="120" as="sourcePoint" />
            <mxPoint x="-520" y="120" as="targetPoint" />
            <Array as="points">
              <mxPoint x="-620" y="120" />
              <mxPoint x="-600" y="110" />
              <mxPoint x="-580" y="120" />
            </Array>
          </mxGeometry>
        </mxCell>
      </root>
    </mxGraphModel>
  </diagram>
</mxfile>
